<?xml version="1.0" standalone="no"?>
<!DOCTYPE svg PUBLIC "-//W3C//DTD SVG 20010904//EN"
 "http://www.w3.org/TR/2001/REC-SVG-20010904/DTD/svg10.dtd">
<svg version="1.0" xmlns="http://www.w3.org/2000/svg"
 width="512.000000pt" height="512.000000pt" viewBox="0 0 512.000000 512.000000"
 preserveAspectRatio="xMidYMid meet">

<g transform="translate(0.000000,512.000000) scale(0.100000,-0.100000)"
fill="#000000" stroke="none">
<path d="M4253 4528 c-258 -289 -485 -485 -853 -738 -334 -230 -516 -383 -681
-572 l-50 -57 -45 -188 c-24 -103 -44 -192 -44 -198 -1 -5 -21 12 -45 39 -46
51 -83 63 -110 35 -25 -24 -145 -231 -190 -324 -62 -130 -111 -269 -150 -419
-33 -129 -65 -322 -65 -392 l0 -36 -47 6 c-308 44 -627 135 -753 216 -202 130
-222 332 -51 500 93 91 224 171 520 317 473 233 628 329 782 482 113 114 176
211 220 341 29 86 33 107 33 215 1 140 -16 216 -74 342 -62 132 -148 243 -263
334 -57 45 -90 49 -113 14 -23 -35 -12 -54 63 -116 201 -164 310 -426 274
-658 -37 -239 -205 -437 -534 -629 -48 -29 -231 -124 -407 -212 -176 -88 -366
-192 -423 -230 -119 -79 -222 -183 -261 -262 -78 -159 -49 -327 79 -453 130
-129 387 -223 813 -296 l132 -23 0 -105 c0 -258 54 -581 145 -861 31 -97 34
-118 38 -263 4 -135 7 -161 23 -178 13 -14 27 -19 44 -16 33 6 504 223 695
320 287 145 448 274 516 412 31 63 34 78 34 155 0 72 -4 93 -27 140 -58 118
-165 204 -345 276 l-102 41 182 173 c219 208 307 299 435 450 135 159 142 169
142 200 0 41 -17 49 -114 52 l-88 3 196 103 c112 59 205 115 217 130 38 48
194 374 243 507 87 237 147 487 183 760 25 201 26 709 0 748 -12 19 -26 27
-46 27 -23 0 -45 -19 -128 -112z m-798 -1422 c22 -34 11 -53 -80 -133 -44 -39
-126 -118 -181 -175 -509 -520 -818 -1252 -884 -2097 -5 -74 -10 -153 -9 -175
0 -39 2 -37 28 39 74 213 209 412 466 689 94 101 132 136 150 136 32 0 154
-45 239 -87 128 -64 216 -173 216 -269 0 -143 -148 -292 -450 -453 -78 -41
-636 -301 -647 -301 -2 0 -3 41 -3 91 0 75 -3 96 -20 120 -30 41 -58 108 -70
166 -9 40 -8 85 5 200 72 660 303 1267 662 1741 141 187 316 370 481 505 42
34 76 35 97 3z"/>
</g>
</svg>
