<svg width="512" height="512" viewBox="0 0 512 512" fill="none" xmlns="http://www.w3.org/2000/svg">
<g clip-path="url(#clip0_136_412)">
<path d="M107.797 323.371C107.797 353.131 83.6693 377.259 53.9093 377.259C24.128 377.259 0 353.131 0 323.371C0 293.611 24.128 269.483 53.888 269.483H107.776L107.797 323.371Z" fill="white"/>
<path d="M134.741 323.371C134.741 293.611 158.869 269.483 188.629 269.483C218.389 269.483 242.517 293.611 242.517 323.371V458.112C242.517 487.872 218.389 512 188.629 512C158.869 512 134.741 487.872 134.741 458.112V323.371Z" fill="white"/>
<path d="M188.629 107.797C158.869 107.797 134.741 83.6693 134.741 53.9093C134.741 24.128 158.869 0 188.629 0C218.389 0 242.517 24.128 242.517 53.888V107.776L188.629 107.797Z" fill="white"/>
<path d="M188.629 134.741C218.389 134.741 242.517 158.869 242.517 188.629C242.517 218.389 218.389 242.517 188.629 242.517H53.888C24.128 242.517 0 218.389 0 188.629C0 158.869 24.128 134.741 53.888 134.741H188.629Z" fill="white"/>
<path d="M404.203 188.629C404.203 158.869 428.331 134.741 458.091 134.741C487.872 134.741 512 158.869 512 188.629C512 218.389 487.872 242.517 458.112 242.517H404.224L404.203 188.629Z" fill="white"/>
<path d="M377.259 188.629C377.259 218.389 353.131 242.517 323.371 242.517C293.611 242.517 269.483 218.389 269.483 188.629V53.888C269.483 24.128 293.611 0 323.371 0C353.131 0 377.259 24.128 377.259 53.888V188.629Z" fill="white"/>
<path d="M323.371 404.203C353.131 404.203 377.259 428.331 377.259 458.091C377.259 487.851 353.131 511.979 323.371 511.979C293.611 511.979 269.483 487.851 269.483 458.091V404.203H323.371Z" fill="white"/>
<path d="M323.371 377.259C293.611 377.259 269.483 353.131 269.483 323.371C269.483 293.611 293.611 269.483 323.371 269.483H458.112C487.872 269.483 512 293.611 512 323.371C512 353.131 487.872 377.259 458.112 377.259H323.371Z" fill="white"/>
</g>
<defs>
<clipPath id="clip0_136_412">
<rect width="512" height="512" fill="white"/>
</clipPath>
</defs>
</svg>
